Coordinates
version=1
nRows=23
nColumns=38
inDegrees=no

Units are S.I. units (second, meters, Newtons, ...)
If the header above contains a line with 'inDegrees', this indicates whether rotational values are in degrees (yes) or radians (no).

endheader
time	pelvis_tilt	pelvis_list	pelvis_rotation	pelvis_tx	pelvis_ty	pelvis_tz	hip_flexion_r	hip_adduction_r	hip_rotation_r	knee_angle_r	ankle_angle_r	subtalar_angle_r	mtp_angle_r	hip_flexion_l	hip_adduction_l	hip_rotation_l	knee_angle_l	ankle_angle_l	subtalar_angle_l	mtp_angle_l	lumbar_extension	lumbar_bending	lumbar_rotation	arm_flex_r	arm_add_r	arm_rot_r	elbow_flex_r	pro_sup_r	wrist_flex_r	wrist_dev_r	arm_flex_l	arm_add_l	arm_rot_l	elbow_flex_l	pro_sup_l	wrist_flex_l	wrist_dev_l
0	-0.0685283	-0.109173	-3.01788	-0.275289	0.882633	0.0391849	0.171935	-0.171426	-0.132112	1.50361	0.00402694	0	0	0.359134	0.12208	-0.0847815	0.987544	0.535294	0	0	-0.380839	-0.119042	-0.0390145	0.188835	-0.479478	0.876695	1.65454	1.27788	0	0	0.227558	-0.416913	0.641174	1.97227	1.44538	0	0
0.00999079	-0.0620036	-0.09962	-3.01807	-0.274113	0.88628	0.0391293	0.210404	-0.161473	-0.127169	1.4853	0.0198996	0	0	0.331714	0.111854	-0.076771	0.963526	0.534721	0	0	-0.373072	-0.107633	-0.0566352	0.158505	-0.491151	0.851607	1.6705	1.27512	0	0	0.272368	-0.419622	0.655427	1.9866	1.45055	0	0
0.0199816	-0.0554217	-0.0900199	-3.01829	-0.272957	0.889998	0.0390673	0.248663	-0.151485	-0.12243	1.46627	0.035594	0	0	0.30419	0.10164	-0.0686534	0.939092	0.533647	0	0	-0.3652	-0.0961635	-0.0741094	0.128153	-0.502812	0.826501	1.68647	1.27244	0	0	0.316984	-0.422404	0.669686	2.00088	1.45579	0	0
0.0299724	-0.0487519	-0.0803303	-3.01861	-0.271856	0.893897	0.0389891	0.286289	-0.141427	-0.118167	1.44539	0.0508102	0	0	0.276365	0.09147	-0.0603248	0.913646	0.531286	0	0	-0.35712	-0.0845645	-0.0911668	0.097644	-0.514415	0.801196	1.70253	1.27005	0	0	0.36109	-0.425326	0.683944	2.01505	1.46114	0	0
0.0399632	-0.0420061	-0.0705332	-3.01919	-0.270851	0.898087	0.0388834	0.322723	-0.131272	-0.114606	1.42138	0.0652035	0	0	0.248002	0.0813771	-0.0517692	0.886589	0.526744	0	0	-0.348774	-0.0727856	-0.107449	0.0667988	-0.525887	0.775435	1.71869	1.26824	0	0	0.404294	-0.428421	0.698188	2.02895	1.46659	0	0
0.049954	-0.0351963	-0.0606345	-3.02021	-0.269989	0.902662	0.0387381	0.35738	-0.120986	-0.111874	1.39304	0.07846	0	0	0.218929	0.071387	-0.0430848	0.857453	0.51905	0	0	-0.340104	-0.0608083	-0.122591	0.0354884	-0.537135	0.74904	1.73492	1.26722	0	0	0.446126	-0.431689	0.712363	2.04246	1.47202	0	0
0.0599448	-0.0282933	-0.0506564	-3.0219	-0.269317	0.907679	0.0385421	0.389743	-0.110528	-0.109986	1.3593	0.0903513	0	0	0.189106	0.0615254	-0.0344558	0.825964	0.507204	0	0	-0.331009	-0.0486459	-0.136287	0.00367662	-0.548046	0.721984	1.75109	1.26717	0	0	0.486041	-0.435104	0.726371	2.05544	1.47728	0	0
0.0699355	-0.0212609	-0.04065	-3.02443	-0.268881	0.91316	0.0382864	0.419354	-0.0998552	-0.108857	1.31937	0.100748	0	0	0.158598	0.051837	-0.0261066	0.792069	0.490249	0	0	-0.321392	-0.0363509	-0.148336	-0.0285771	-0.558492	0.694391	1.76699	1.2682	0	0	0.523488	-0.438626	0.740092	2.06779	1.48223	0	0
0.0799263	-0.0140668	-0.0307024	-3.02792	-0.26872	0.919085	0.0379652	0.445825	-0.088949	-0.108315	1.27273	0.109608	0	0	0.12756	0.0423988	-0.0182643	0.755935	0.467392	0	0	-0.311181	-0.0240174	-0.158653	-0.0611451	-0.568331	0.666486	1.78236	1.27043	0	0	0.557989	-0.442209	0.753428	2.07942	1.48672	0	0
0.0899171	-0.00667575	-0.0209358	-3.03239	-0.26886	0.925396	0.0375764	0.468877	-0.0778231	-0.108112	1.21917	0.116976	0	0	0.0962596	0.0333226	-0.011134	0.717947	0.438173	0	0	-0.300321	-0.0117775	-0.167264	-0.0938667	-0.577421	0.63852	1.79697	1.27383	0	0	0.589184	-0.445805	0.766333	2.09028	1.49063	0	0
0.0999079	0.000959433	-0.0115039	-3.03777	-0.269313	0.932002	0.0371213	0.488371	-0.0665347	-0.107939	1.15883	0.122985	0	0	0.0650773	0.0247526	-0.00488311	0.678702	0.402479	0	0	-0.288769	0.000204758	-0.174285	-0.126571	-0.585627	0.610723	1.81062	1.27824	0	0	0.616864	-0.449366	0.77882	2.10031	1.49384	0	0
0.109899	0.0088935	-0.00258705	-3.0439	-0.270073	0.938784	0.0366048	0.504315	-0.0551909	-0.107435	1.09216	0.127864	0	0	0.0344973	0.016859	0.000369899	0.638991	0.360539	0	0	-0.276488	0.0117397	-0.179914	-0.15908	-0.592824	0.583289	1.82317	1.28343	0	0	0.640964	-0.452852	0.790952	2.10946	1.49624	0	0
0.11989	0.0171762	0.00561604	-3.05057	-0.271121	0.945603	0.0360345	0.516858	-0.043946	-0.10621	1.01993	0.13192	0	0	0.00506491	0.00982451	0.00455463	0.599748	0.312915	0	0	-0.263462	0.0226209	-0.184407	-0.191196	-0.598912	0.556396	1.83453	1.28911	0	0	0.661534	-0.456233	0.802811	2.11769	1.49775	0	0
0.12988	0.0258302	0.0129052	-3.05752	-0.27243	0.952311	0.0354188	0.526252	-0.0329867	-0.103873	0.943212	0.135498	0	0	-0.0226706	0.00382355	0.00764088	0.561996	0.260485	0	0	-0.24971	0.0326415	-0.18806	-0.222685	-0.603819	0.530233	1.84464	1.29505	0	0	0.678701	-0.459503	0.814471	2.12496	1.49836	0	0
0.139871	0.0348334	0.019102	-3.06448	-0.273966	0.958759	0.0347655	0.532835	-0.0225125	-0.100068	0.863334	0.13894	0	0	-0.0482082	-0.00100187	0.00962897	0.526794	0.204426	0	0	-0.2353	0.041618	-0.191185	-0.253247	-0.607526	0.50503	1.8535	1.30106	0	0	0.692628	-0.462679	0.825963	2.13127	1.4981	0	0
0.149862	0.0441187	0.0240726	-3.07123	-0.275695	0.964803	0.0340803	0.537011	-0.0127173	-0.0945369	0.781857	0.142535	0	0	-0.0711211	-0.00456319	0.010539	0.495183	0.14615	0	0	-0.220343	0.0494131	-0.19408	-0.282504	-0.61007	0.481077	1.86114	1.30696	0	0	0.703475	-0.465804	0.837266	2.13661	1.49708	0	0
0.159853	0.0535899	0.0277433	-3.07758	-0.277578	0.970309	0.0333662	0.53925	-0.00377401	-0.0871657	0.700526	0.14648	0	0	-0.0910597	-0.00683893	0.0103968	0.468153	0.0872073	0	0	-0.204983	0.0559524	-0.197007	-0.309997	-0.611555	0.458729	1.86759	1.31262	0	0	0.711372	-0.46894	0.848298	2.14099	1.49544	0	0
0.169843	0.0631397	0.0301115	-3.08344	-0.279578	0.975154	0.0326223	0.540086	0.00418014	-0.0780389	0.621212	0.150859	0	0	-0.107745	-0.00788264	0.00922443	0.446604	0.0291722	0	0	-0.189369	0.0612352	-0.200175	-0.335198	-0.612148	0.438398	1.87292	1.31788	0	0	0.716399	-0.472167	0.858923	2.1444	1.49334	0	0
0.179834	0.0726629	0.0312512	-3.08877	-0.281658	0.979232	0.0318439	0.540101	0.0110618	-0.0674712	0.545854	0.155633	0	0	-0.120963	-0.00782853	0.0070284	0.431323	-0.026481	0	0	-0.173652	0.0653418	-0.203724	-0.357539	-0.612066	0.420534	1.8772	1.3226	0	0	0.718582	-0.475566	0.868962	2.14686	1.49096	0	0
0.189825	0.0820577	0.0313132	-3.09361	-0.283783	0.98245	0.0310228	0.53989	0.0168574	-0.0560118	0.476366	0.160657	0	0	-0.130563	-0.00689301	0.00379231	0.422963	-0.0784881	0	0	-0.157982	0.0684343	-0.207712	-0.376448	-0.611555	0.405587	1.88053	1.32664	0	0	0.717898	-0.479207	0.878217	2.14834	1.48848	0	0
0.199816	0.0912141	0.0305154	-3.09804	-0.285919	0.984737	0.0301482	0.54	0.0216307	-0.0444018	0.414535	0.165701	0	0	-0.136476	-0.00536507	-0.000515258	0.422021	-0.12588	0	0	-0.142531	0.0707465	-0.21211	-0.39139	-0.610859	0.393964	1.88303	1.32984	0	0	0.714308	-0.483133	0.886488	2.14879	1.48608	0	0
0.209807	0.0999784	0.029128	-3.10219	-0.28803	0.986041	0.0292091	0.540845	0.025527	-0.0334837	0.361893	0.170452	0	0	-0.138745	-0.00359063	-0.00592969	0.428819	-0.168029	0	0	-0.127543	0.072569	-0.216795	-0.401901	-0.610195	0.385974	1.88486	1.33208	0	0	0.707797	-0.487345	0.893613	2.14811	1.48394	0	0
0.219797	0.108011	0.0274842	-3.10623	-0.29007	0.986351	0.0282009	0.542509	0.0288014	-0.0240816	0.319597	0.174497	0	0	-0.137678	-0.00197469	-0.0125015	0.443497	-0.204639	0	0	-0.113538	0.0742779	-0.221482	-0.407621	-0.609742	0.381732	1.88624	1.33322	0	0	0.698515	-0.491753	0.899507	2.14614	1.48216	0	0
